<mxfile host="app.diagrams.net" modified="2024-08-27T14:31:13.399Z" agent="Mozilla/5.0 (X11; Linux x86_64) AppleWebKit/537.36 (KHTML, like Gecko) Chrome/127.0.0.0 Safari/537.36" version="24.6.4" etag="K_WAjjK9hDSv3JICqcKk" type="github">
  <diagram name="Page-1" id="T2jnhQfGHu6z2unrekff">
    <mxGraphModel>
      <root>
        <mxCell id="0" />
        <mxCell id="1" parent="0" />
      </root>
    </mxGraphModel>
  </diagram>
</mxfile>
